/* XPM */
static char *huestudioicon_xpm[]={
"32 32 3 1",
". c None",
"# c #000000",
"a c #08ff31",
"................................",
"...#########........#########...",
"...#aaaaaaa#........#aaaaaaa#...",
"...#aaaaaaa#........#aaaaaaa#...",
"...#aaaaaaa#........#aaaaaaa#...",
"...#aaaaaaa#........#aaaaaaa#...",
"...#aaaaaaa#........#aaaaaaa#...",
"...#aaaaaaa#........#aaaaaaa#...",
"...#aaaaaaa#........#aaaaaaa#...",
"...#aaaaaaa#........#aaaaaaa#...",
"...#aaaaaaa#........#aaaaaaa#...",
"...#aaaaaaa#........#aaaaaaa#...",
"...#aaaaaaa##########aaaaaaa#...",
"...#aaaaaaaaaaaaaaaaaaaaaaaa#...",
"...#aaaaaaaaaaaaaaaaaaaaaaaa#...",
"...#aaaaaaaaaaaaaaaaaaaaaaaa#...",
"...#aaaaaaaaaaaaaaaaaaaaaaaa#...",
"...#aaaaaaaaaaaaaaaaaaaaaaaa#...",
"...#aaaaaaaaaaaaaaaaaaaaaaaa#...",
"...#aaaaaaa##########aaaaaaa#...",
"...#aaaaaaa#........#aaaaaaa#...",
"...#aaaaaaa#........#aaaaaaa#...",
"...#aaaaaaa#........#aaaaaaa#...",
"...#aaaaaaa#........#aaaaaaa#...",
"...#aaaaaaa#........#aaaaaaa#...",
"...#aaaaaaa#........#aaaaaaa#...",
"...#aaaaaaa#........#aaaaaaa#...",
"...#aaaaaaa#........#aaaaaaa#...",
"...#aaaaaaa#........#aaaaaaa#...",
"...#########........#########...",
"................................",
"................................"};
